<mxfile host="app.diagrams.net" modified="2022-07-18T01:09:36.978Z" agent="5.0 (Macintosh; Intel Mac OS X 10_15_7) AppleWebKit/537.36 (KHTML, like Gecko) Chrome/102.0.0.0 Safari/537.36" etag="8k-jArO4LUGTOVFEUe9G" version="20.1.1" type="github">
  <diagram id="kSuxAfaZTfRO-qfjBcU7" name="Page-1">
    <mxGraphModel dx="1298" dy="834" grid="1" gridSize="10" guides="1" tooltips="1" connect="1" arrows="1" fold="1" page="1" pageScale="1" pageWidth="827" pageHeight="1169" math="0" shadow="0">
      <root>
        <mxCell id="0" />
        <mxCell id="1" parent="0" />
        <mxCell id="Z8FgXziumkCd9OSzLZWc-5" style="edgeStyle=orthogonalEdgeStyle;rounded=0;orthogonalLoop=1;jettySize=auto;html=1;exitX=1;exitY=0.5;exitDx=0;exitDy=0;entryX=-0.012;entryY=0.35;entryDx=0;entryDy=0;entryPerimeter=0;" edge="1" parent="1" source="Z8FgXziumkCd9OSzLZWc-1" target="Z8FgXziumkCd9OSzLZWc-3">
          <mxGeometry relative="1" as="geometry" />
        </mxCell>
        <mxCell id="Z8FgXziumkCd9OSzLZWc-6" value="localhost:8080&lt;br&gt;" style="edgeLabel;html=1;align=center;verticalAlign=middle;resizable=0;points=[];" vertex="1" connectable="0" parent="Z8FgXziumkCd9OSzLZWc-5">
          <mxGeometry x="-0.6243" y="3" relative="1" as="geometry">
            <mxPoint as="offset" />
          </mxGeometry>
        </mxCell>
        <mxCell id="Z8FgXziumkCd9OSzLZWc-9" style="edgeStyle=orthogonalEdgeStyle;rounded=0;orthogonalLoop=1;jettySize=auto;html=1;exitX=1;exitY=0.5;exitDx=0;exitDy=0;entryX=0;entryY=0.5;entryDx=0;entryDy=0;" edge="1" parent="1" source="Z8FgXziumkCd9OSzLZWc-1" target="Z8FgXziumkCd9OSzLZWc-8">
          <mxGeometry relative="1" as="geometry" />
        </mxCell>
        <mxCell id="Z8FgXziumkCd9OSzLZWc-10" value="locahost:8080/&amp;lt;name&lt;br&gt;&amp;gt;" style="edgeLabel;html=1;align=center;verticalAlign=middle;resizable=0;points=[];" vertex="1" connectable="0" parent="Z8FgXziumkCd9OSzLZWc-9">
          <mxGeometry x="0.3544" y="3" relative="1" as="geometry">
            <mxPoint as="offset" />
          </mxGeometry>
        </mxCell>
        <mxCell id="Z8FgXziumkCd9OSzLZWc-1" value="browsser" style="whiteSpace=wrap;html=1;aspect=fixed;" vertex="1" parent="1">
          <mxGeometry x="50" y="320" width="80" height="80" as="geometry" />
        </mxCell>
        <mxCell id="Z8FgXziumkCd9OSzLZWc-13" style="edgeStyle=orthogonalEdgeStyle;rounded=0;orthogonalLoop=1;jettySize=auto;html=1;exitX=1;exitY=0.5;exitDx=0;exitDy=0;entryX=0;entryY=0.5;entryDx=0;entryDy=0;" edge="1" parent="1" source="Z8FgXziumkCd9OSzLZWc-3" target="Z8FgXziumkCd9OSzLZWc-11">
          <mxGeometry relative="1" as="geometry" />
        </mxCell>
        <mxCell id="Z8FgXziumkCd9OSzLZWc-3" value="&quot;/&quot;&lt;br&gt;" style="whiteSpace=wrap;html=1;aspect=fixed;" vertex="1" parent="1">
          <mxGeometry x="385" y="240" width="80" height="80" as="geometry" />
        </mxCell>
        <mxCell id="Z8FgXziumkCd9OSzLZWc-4" value="Application - Student management system" style="text;html=1;align=center;verticalAlign=middle;resizable=0;points=[];autosize=1;strokeColor=none;fillColor=none;" vertex="1" parent="1">
          <mxGeometry x="255" y="155" width="250" height="30" as="geometry" />
        </mxCell>
        <mxCell id="Z8FgXziumkCd9OSzLZWc-7" value="" style="swimlane;startSize=0;" vertex="1" parent="1">
          <mxGeometry x="280" y="220" width="230" height="370" as="geometry" />
        </mxCell>
        <mxCell id="Z8FgXziumkCd9OSzLZWc-8" value="&quot;/name&quot;" style="whiteSpace=wrap;html=1;aspect=fixed;" vertex="1" parent="Z8FgXziumkCd9OSzLZWc-7">
          <mxGeometry x="105" y="130" width="80" height="80" as="geometry" />
        </mxCell>
        <mxCell id="Z8FgXziumkCd9OSzLZWc-11" value="home.html&lt;br&gt;" style="whiteSpace=wrap;html=1;aspect=fixed;" vertex="1" parent="1">
          <mxGeometry x="570" y="240" width="80" height="80" as="geometry" />
        </mxCell>
        <mxCell id="Z8FgXziumkCd9OSzLZWc-12" value="html file&lt;br&gt;" style="text;html=1;align=center;verticalAlign=middle;resizable=0;points=[];autosize=1;strokeColor=none;fillColor=none;" vertex="1" parent="1">
          <mxGeometry x="580" y="155" width="60" height="30" as="geometry" />
        </mxCell>
        <mxCell id="Z8FgXziumkCd9OSzLZWc-14" value="welcome.html" style="whiteSpace=wrap;html=1;aspect=fixed;" vertex="1" parent="1">
          <mxGeometry x="570" y="350" width="80" height="80" as="geometry" />
        </mxCell>
        <mxCell id="Z8FgXziumkCd9OSzLZWc-15" style="edgeStyle=orthogonalEdgeStyle;rounded=0;orthogonalLoop=1;jettySize=auto;html=1;exitX=1;exitY=0.5;exitDx=0;exitDy=0;entryX=0;entryY=0.5;entryDx=0;entryDy=0;" edge="1" parent="1" source="Z8FgXziumkCd9OSzLZWc-8" target="Z8FgXziumkCd9OSzLZWc-14">
          <mxGeometry relative="1" as="geometry" />
        </mxCell>
      </root>
    </mxGraphModel>
  </diagram>
</mxfile>
